<svg width="233" height="45" viewBox="0 0 233 45" fill="none" xmlns="http://www.w3.org/2000/svg">
<path d="M18.3145 31.5213C18.7285 31.5213 19.1384 31.4398 19.5208 31.2815C19.9033 31.1231 20.2508 30.8909 20.5435 30.5982C20.8362 30.3055 21.0684 29.9581 21.2268 29.5756C21.3853 29.1932 21.4668 28.7833 21.4668 28.3693C21.4668 22.5173 23.7915 16.905 27.9295 12.7669C32.0675 8.62891 37.68 6.30419 43.5319 6.30419C49.3839 6.30419 54.9964 8.62891 59.1343 12.7669C63.2725 16.905 65.5971 22.5173 65.5971 28.3693C65.6053 29.1999 65.9411 29.9936 66.5314 30.5779C67.1215 31.1623 67.9186 31.4901 68.7494 31.4901C69.5798 31.4901 70.3769 31.1623 70.967 30.5779C71.5573 29.9936 71.8931 29.1999 71.9013 28.3693C71.9013 24.6438 71.1674 20.9548 69.7419 17.5129C68.316 14.0709 66.2265 10.9435 63.5922 8.30918C60.9576 5.67484 57.8302 3.58517 54.3885 2.15949C50.9464 0.733793 47.2576 0 43.5319 0C39.8063 0 36.1175 0.733793 32.6754 2.15949C29.2335 3.58517 26.1061 5.67484 23.4718 8.30918C20.8374 10.9435 18.7478 14.0709 17.3221 17.5129C15.8964 20.9548 15.1626 24.6438 15.1626 28.3693C15.1626 29.2053 15.4947 30.007 16.0858 30.5981C16.6769 31.1892 17.4786 31.5213 18.3145 31.5213Z" fill="url(#paint0_linear)"/>
<path d="M83.8792 37.8252H56.1298C58.1844 35.1013 59.294 31.7813 59.2906 28.3691C59.2906 24.189 57.6299 20.1802 54.6744 17.2245C51.7185 14.2688 47.7096 12.6083 43.5296 12.6083C39.3499 12.6083 35.341 14.2688 32.3851 17.2245C29.4294 20.1802 27.769 24.189 27.769 28.3691C27.769 29.2051 28.101 30.0069 28.6922 30.5981C29.2834 31.1892 30.0852 31.5213 30.9212 31.5213C31.7573 31.5213 32.5592 31.1892 33.1502 30.5981C33.7415 30.0069 34.0735 29.2051 34.0735 28.3691C34.0735 26.4987 34.6279 24.6704 35.6671 23.1153C36.7062 21.5601 38.183 20.348 39.911 19.6322C41.6389 18.9164 43.5403 18.7291 45.3746 19.094C47.209 19.4588 48.8941 20.3595 50.2165 21.6819C51.5391 23.0044 52.4397 24.6894 52.8048 26.5238C53.1695 28.3582 52.9823 30.2596 52.2667 31.9874C51.5507 33.7154 50.3389 35.1925 48.7837 36.2316C47.2285 37.2707 45.4001 37.8252 43.5299 37.8252H3.18375C2.76716 37.8211 2.35388 37.8995 1.9678 38.0562C1.58171 38.2126 1.2305 38.4442 0.934438 38.7372C0.638384 39.0305 0.40336 39.3792 0.242971 39.7637C0.0825802 40.1483 0 40.5608 0 40.9775C0 41.3938 0.0825802 41.8064 0.242971 42.1909C0.40336 42.5755 0.638384 42.9241 0.934438 43.2174C1.2305 43.5104 1.58171 43.742 1.9678 43.8984C2.35388 44.0551 2.76716 44.1335 3.18375 44.1294H83.8792C84.7097 44.1212 85.5033 43.7855 86.0877 43.1951C86.6721 42.6051 87 41.8079 87 40.9775C87 40.1467 86.6721 39.3496 86.0877 38.7595C85.5033 38.1692 84.7097 37.8334 83.8792 37.8252Z" fill="url(#paint1_linear)"/>
<path d="M106.44 21.3C106.187 20.98 105.84 20.7467 105.4 20.6C104.973 20.44 104.567 20.36 104.18 20.36C103.953 20.36 103.72 20.3867 103.48 20.44C103.24 20.4933 103.013 20.58 102.8 20.7C102.587 20.8067 102.413 20.9533 102.28 21.14C102.147 21.3267 102.08 21.5533 102.08 21.82C102.08 22.2467 102.24 22.5733 102.56 22.8C102.88 23.0267 103.28 23.22 103.76 23.38C104.253 23.54 104.78 23.7 105.34 23.86C105.9 24.02 106.42 24.2467 106.9 24.54C107.393 24.8333 107.8 25.2267 108.12 25.72C108.44 26.2133 108.6 26.8733 108.6 27.7C108.6 28.4867 108.453 29.1733 108.16 29.76C107.867 30.3467 107.467 30.8333 106.96 31.22C106.467 31.6067 105.887 31.8933 105.22 32.08C104.567 32.2667 103.873 32.36 103.14 32.36C102.22 32.36 101.367 32.22 100.58 31.94C99.7933 31.66 99.06 31.2067 98.38 30.58L100.6 28.14C100.92 28.5667 101.32 28.9 101.8 29.14C102.293 29.3667 102.8 29.48 103.32 29.48C103.573 29.48 103.827 29.4533 104.08 29.4C104.347 29.3333 104.58 29.24 104.78 29.12C104.993 29 105.16 28.8467 105.28 28.66C105.413 28.4733 105.48 28.2533 105.48 28C105.48 27.5733 105.313 27.24 104.98 27C104.66 26.7467 104.253 26.5333 103.76 26.36C103.267 26.1867 102.733 26.0133 102.16 25.84C101.587 25.6667 101.053 25.4333 100.56 25.14C100.067 24.8467 99.6533 24.46 99.32 23.98C99 23.5 98.84 22.8667 98.84 22.08C98.84 21.32 98.9867 20.6533 99.28 20.08C99.5867 19.5067 99.9867 19.0267 100.48 18.64C100.987 18.2533 101.567 17.9667 102.22 17.78C102.873 17.58 103.547 17.48 104.24 17.48C105.04 17.48 105.813 17.5933 106.56 17.82C107.307 18.0467 107.98 18.4267 108.58 18.96L106.44 21.3ZM119.904 32H117.024V30.68H116.984C116.878 30.8667 116.738 31.0533 116.564 31.24C116.404 31.4267 116.204 31.5933 115.964 31.74C115.724 31.8867 115.451 32.0067 115.144 32.1C114.838 32.1933 114.504 32.24 114.144 32.24C113.384 32.24 112.764 32.1267 112.284 31.9C111.818 31.66 111.451 31.3333 111.184 30.92C110.931 30.5067 110.758 30.02 110.664 29.46C110.584 28.9 110.544 28.2933 110.544 27.64V22.28H113.544V27.04C113.544 27.32 113.551 27.6133 113.564 27.92C113.591 28.2133 113.651 28.4867 113.744 28.74C113.851 28.9933 114.004 29.2 114.204 29.36C114.418 29.52 114.718 29.6 115.104 29.6C115.491 29.6 115.804 29.5333 116.044 29.4C116.284 29.2533 116.464 29.0667 116.584 28.84C116.718 28.6 116.804 28.3333 116.844 28.04C116.884 27.7467 116.904 27.44 116.904 27.12V22.28H119.904V32ZM122.029 22.28H124.909V23.6H124.949C125.042 23.4133 125.175 23.2267 125.349 23.04C125.522 22.8533 125.729 22.6867 125.969 22.54C126.209 22.3933 126.482 22.2733 126.789 22.18C127.095 22.0867 127.429 22.04 127.789 22.04C128.549 22.04 129.162 22.16 129.629 22.4C130.095 22.6267 130.455 22.9467 130.709 23.36C130.975 23.7733 131.155 24.26 131.249 24.82C131.342 25.38 131.389 25.9867 131.389 26.64V32H128.389V27.24C128.389 26.96 128.375 26.6733 128.349 26.38C128.335 26.0733 128.275 25.7933 128.169 25.54C128.075 25.2867 127.922 25.08 127.709 24.92C127.509 24.76 127.215 24.68 126.829 24.68C126.442 24.68 126.129 24.7533 125.889 24.9C125.649 25.0333 125.462 25.22 125.329 25.46C125.209 25.6867 125.129 25.9467 125.089 26.24C125.049 26.5333 125.029 26.84 125.029 27.16V32H122.029V22.28ZM133.513 22.28H136.393V23.6H136.433C136.526 23.4133 136.66 23.2267 136.833 23.04C137.006 22.8533 137.213 22.6867 137.453 22.54C137.693 22.3933 137.966 22.2733 138.273 22.18C138.58 22.0867 138.913 22.04 139.273 22.04C140.033 22.04 140.646 22.16 141.113 22.4C141.58 22.6267 141.94 22.9467 142.193 23.36C142.46 23.7733 142.64 24.26 142.733 24.82C142.826 25.38 142.873 25.9867 142.873 26.64V32H139.873V27.24C139.873 26.96 139.86 26.6733 139.833 26.38C139.82 26.0733 139.76 25.7933 139.653 25.54C139.56 25.2867 139.406 25.08 139.193 24.92C138.993 24.76 138.7 24.68 138.313 24.68C137.926 24.68 137.613 24.7533 137.373 24.9C137.133 25.0333 136.946 25.22 136.813 25.46C136.693 25.6867 136.613 25.9467 136.573 26.24C136.533 26.5333 136.513 26.84 136.513 27.16V32H133.513V22.28ZM150.598 33.58C150.398 34.1 150.204 34.56 150.018 34.96C149.831 35.36 149.591 35.6933 149.298 35.96C149.018 36.24 148.658 36.4467 148.218 36.58C147.778 36.7267 147.198 36.8 146.478 36.8C145.704 36.8 144.958 36.68 144.238 36.44L144.638 33.98C145.091 34.18 145.558 34.28 146.038 34.28C146.371 34.28 146.644 34.24 146.858 34.16C147.071 34.0933 147.244 33.9867 147.378 33.84C147.524 33.7067 147.644 33.54 147.738 33.34C147.831 33.14 147.931 32.9067 148.038 32.64L148.258 32.08L143.998 22.28H147.238L149.738 28.7H149.778L151.918 22.28H154.998L150.598 33.58ZM167.069 17.84H169.649L175.809 32H172.289L171.069 29H165.569L164.389 32H160.949L167.069 17.84ZM168.269 21.96L166.549 26.36H170.009L168.269 21.96ZM187.053 31.18C187.053 33.02 186.586 34.4133 185.653 35.36C184.733 36.32 183.326 36.8 181.433 36.8C180.566 36.8 179.713 36.7 178.873 36.5C178.033 36.3133 177.26 35.94 176.553 35.38L178.213 32.9C178.68 33.2867 179.166 33.5933 179.673 33.82C180.193 34.0467 180.76 34.16 181.373 34.16C182.293 34.16 182.966 33.9333 183.393 33.48C183.833 33.04 184.053 32.4733 184.053 31.78V30.84H184.013C183.666 31.3067 183.233 31.64 182.713 31.84C182.206 32.0267 181.726 32.12 181.273 32.12C180.553 32.12 179.9 32 179.313 31.76C178.726 31.5067 178.22 31.16 177.793 30.72C177.38 30.2667 177.06 29.7333 176.833 29.12C176.606 28.5067 176.493 27.8333 176.493 27.1C176.493 26.46 176.593 25.8333 176.793 25.22C177.006 24.6067 177.3 24.0667 177.673 23.6C178.06 23.1333 178.526 22.76 179.073 22.48C179.62 22.1867 180.24 22.04 180.933 22.04C181.36 22.04 181.746 22.0867 182.093 22.18C182.453 22.2733 182.773 22.3933 183.053 22.54C183.333 22.6867 183.573 22.8533 183.773 23.04C183.973 23.2133 184.133 23.3867 184.253 23.56H184.293V22.28H187.053V31.18ZM179.493 27.08C179.493 27.4 179.553 27.7067 179.673 28C179.793 28.28 179.96 28.5333 180.173 28.76C180.4 28.9733 180.653 29.1467 180.933 29.28C181.226 29.4133 181.546 29.48 181.893 29.48C182.226 29.48 182.54 29.4133 182.833 29.28C183.126 29.1467 183.38 28.9733 183.593 28.76C183.82 28.5333 183.993 28.28 184.113 28C184.233 27.7067 184.293 27.4 184.293 27.08C184.293 26.76 184.233 26.46 184.113 26.18C183.993 25.8867 183.82 25.6333 183.593 25.42C183.38 25.1933 183.126 25.0133 182.833 24.88C182.54 24.7467 182.226 24.68 181.893 24.68C181.546 24.68 181.226 24.7467 180.933 24.88C180.653 25.0133 180.4 25.1933 180.173 25.42C179.96 25.6333 179.793 25.8867 179.673 26.18C179.553 26.46 179.493 26.76 179.493 27.08ZM198.651 30.32C198.171 30.9333 197.564 31.4067 196.831 31.74C196.097 32.0733 195.337 32.24 194.551 32.24C193.804 32.24 193.097 32.12 192.431 31.88C191.777 31.64 191.204 31.3 190.711 30.86C190.231 30.4067 189.851 29.8667 189.571 29.24C189.291 28.6133 189.151 27.9133 189.151 27.14C189.151 26.3667 189.291 25.6667 189.571 25.04C189.851 24.4133 190.231 23.88 190.711 23.44C191.204 22.9867 191.777 22.64 192.431 22.4C193.097 22.16 193.804 22.04 194.551 22.04C195.244 22.04 195.871 22.16 196.431 22.4C197.004 22.64 197.484 22.9867 197.871 23.44C198.271 23.88 198.577 24.4133 198.791 25.04C199.004 25.6667 199.111 26.3667 199.111 27.14V28.08H192.151C192.271 28.6533 192.531 29.1133 192.931 29.46C193.331 29.7933 193.824 29.96 194.411 29.96C194.904 29.96 195.317 29.8533 195.651 29.64C195.997 29.4133 196.297 29.1267 196.551 28.78L198.651 30.32ZM196.111 26.04C196.124 25.5333 195.957 25.1 195.611 24.74C195.264 24.38 194.817 24.2 194.271 24.2C193.937 24.2 193.644 24.2533 193.391 24.36C193.137 24.4667 192.917 24.6067 192.731 24.78C192.557 24.94 192.417 25.1333 192.311 25.36C192.217 25.5733 192.164 25.8 192.151 26.04H196.111ZM200.935 22.28H203.815V23.6H203.855C203.948 23.4133 204.082 23.2267 204.255 23.04C204.428 22.8533 204.635 22.6867 204.875 22.54C205.115 22.3933 205.388 22.2733 205.695 22.18C206.002 22.0867 206.335 22.04 206.695 22.04C207.455 22.04 208.068 22.16 208.535 22.4C209.002 22.6267 209.362 22.9467 209.615 23.36C209.882 23.7733 210.062 24.26 210.155 24.82C210.248 25.38 210.295 25.9867 210.295 26.64V32H207.295V27.24C207.295 26.96 207.282 26.6733 207.255 26.38C207.242 26.0733 207.182 25.7933 207.075 25.54C206.982 25.2867 206.828 25.08 206.615 24.92C206.415 24.76 206.122 24.68 205.735 24.68C205.348 24.68 205.035 24.7533 204.795 24.9C204.555 25.0333 204.368 25.22 204.235 25.46C204.115 25.6867 204.035 25.9467 203.995 26.24C203.955 26.5333 203.935 26.84 203.935 27.16V32H200.935V22.28ZM218.999 25.42C218.853 25.2067 218.646 25.0333 218.379 24.9C218.113 24.7533 217.826 24.68 217.519 24.68C216.759 24.68 216.166 24.9067 215.739 25.36C215.326 25.8133 215.119 26.4067 215.119 27.14C215.119 27.8733 215.326 28.4667 215.739 28.92C216.166 29.3733 216.759 29.6 217.519 29.6C217.853 29.6 218.139 29.5267 218.379 29.38C218.619 29.2333 218.826 29.06 218.999 28.86L220.979 30.94C220.513 31.42 219.959 31.76 219.319 31.96C218.693 32.1467 218.093 32.24 217.519 32.24C216.773 32.24 216.066 32.12 215.399 31.88C214.746 31.64 214.173 31.3 213.679 30.86C213.199 30.4067 212.819 29.8667 212.539 29.24C212.259 28.6133 212.119 27.9133 212.119 27.14C212.119 26.3667 212.259 25.6667 212.539 25.04C212.819 24.4133 213.199 23.88 213.679 23.44C214.173 22.9867 214.746 22.64 215.399 22.4C216.066 22.16 216.773 22.04 217.519 22.04C218.093 22.04 218.693 22.14 219.319 22.34C219.959 22.5267 220.513 22.86 220.979 23.34L218.999 25.42ZM227.668 33.58C227.468 34.1 227.274 34.56 227.088 34.96C226.901 35.36 226.661 35.6933 226.368 35.96C226.088 36.24 225.728 36.4467 225.288 36.58C224.848 36.7267 224.268 36.8 223.548 36.8C222.774 36.8 222.028 36.68 221.308 36.44L221.708 33.98C222.161 34.18 222.628 34.28 223.108 34.28C223.441 34.28 223.714 34.24 223.928 34.16C224.141 34.0933 224.314 33.9867 224.448 33.84C224.594 33.7067 224.714 33.54 224.808 33.34C224.901 33.14 225.001 32.9067 225.108 32.64L225.328 32.08L221.068 22.28H224.308L226.808 28.7H226.848L228.988 22.28H232.068L227.668 33.58Z" fill="black"/>
<defs>
<linearGradient id="paint0_linear" x1="15.1626" y1="15.7606" x2="71.9013" y2="15.7606" gradientUnits="userSpaceOnUse">
<stop stop-color="#F4431F"/>
<stop offset="1" stop-color="#F7B733"/>
</linearGradient>
<linearGradient id="paint1_linear" x1="0" y1="28.3689" x2="87" y2="28.3689" gradientUnits="userSpaceOnUse">
<stop stop-color="#FC4A1A"/>
<stop offset="1" stop-color="#F7B733"/>
</linearGradient>
</defs>
</svg>
